<svg width="27" height="19" viewBox="0 0 27 19" fill="none" xmlns="http://www.w3.org/2000/svg">
<path d="M25.7656 4.07695C25.6339 3.91585 25.468 3.78609 25.2799 3.69711C25.0918 3.60812 24.8862 3.56214 24.6781 3.5625H6.84512L6.48594 1.52461C6.44764 1.30754 6.33408 1.1109 6.1652 0.969239C5.99632 0.827578 5.78293 0.749954 5.5625 0.75H1.8125C1.56386 0.75 1.3254 0.848772 1.14959 1.02459C0.973772 1.2004 0.875 1.43886 0.875 1.6875C0.875 1.93614 0.973772 2.1746 1.14959 2.35041C1.3254 2.52623 1.56386 2.625 1.8125 2.625H4.77617L7.45156 17.7879C7.48986 18.005 7.60342 18.2016 7.7723 18.3433C7.94118 18.4849 8.15457 18.5625 8.375 18.5625H23.375C23.6236 18.5625 23.8621 18.4637 24.0379 18.2879C24.2137 18.1121 24.3125 17.8736 24.3125 17.625C24.3125 17.3764 24.2137 17.1379 24.0379 16.9621C23.8621 16.7863 23.6236 16.6875 23.375 16.6875H9.16133L8.83086 14.8125H22.9906C23.3157 14.8121 23.6307 14.6994 23.8823 14.4934C24.1339 14.2874 24.3065 14.0009 24.3711 13.6822L26.0586 5.24473C26.0993 5.04053 26.0941 4.82985 26.0434 4.6279C25.9927 4.42595 25.8979 4.23777 25.7656 4.07695Z" fill="white"/>
</svg>
