<svg width="14" height="18" viewBox="0 0 14 18" fill="none" xmlns="http://www.w3.org/2000/svg">
<path d="M12.625 17.75C12.4721 17.7504 12.3244 17.6949 12.2098 17.5938L7 12.9613L1.79024 17.5938C1.70008 17.6739 1.58866 17.7262 1.46942 17.7445C1.35017 17.7627 1.22821 17.746 1.11823 17.6964C1.00825 17.6469 0.914966 17.5666 0.849627 17.4652C0.784288 17.3638 0.749688 17.2456 0.750002 17.125V2.75C0.750726 2.08718 1.01435 1.45172 1.48303 0.983032C1.95172 0.514348 2.58718 0.250724 3.25 0.25H10.75C11.4128 0.250724 12.0483 0.514348 12.517 0.983032C12.9857 1.45172 13.2493 2.08718 13.25 2.75V17.125C13.25 17.2908 13.1842 17.4497 13.0669 17.5669C12.9497 17.6842 12.7908 17.75 12.625 17.75Z" fill="url(#paint0_linear_46_252)"/>
<defs>
<linearGradient id="paint0_linear_46_252" x1="7" y1="0.25" x2="7" y2="17.7516" gradientUnits="userSpaceOnUse">
<stop stop-color="#E68804"/>
<stop offset="1" stop-color="#D14A3B"/>
</linearGradient>
</defs>
</svg>
