<svg width="19" height="21" viewBox="0 0 19 21" fill="none" xmlns="http://www.w3.org/2000/svg">
<path d="M-1.03271 18.5757L3.56152 13.9814C2.45544 12.509 1.85834 10.7166 1.86035 8.875C1.86035 4.1709 5.6875 0.34375 10.3916 0.34375C15.0957 0.34375 18.9229 4.1709 18.9229 8.875C18.9229 13.5791 15.0957 17.4062 10.3916 17.4062C8.54996 17.4083 6.75764 16.8112 5.28516 15.7051L0.690918 20.2993C0.458357 20.5072 0.155037 20.6182 -0.156773 20.6094C-0.468582 20.6007 -0.765221 20.473 -0.98579 20.2524C-1.20636 20.0318 -1.33412 19.7352 -1.34285 19.4234C-1.35157 19.1116 -1.2406 18.8082 -1.03271 18.5757ZM16.4854 8.875C16.4854 7.66977 16.128 6.49161 15.4584 5.48949C14.7888 4.48738 13.8371 3.70633 12.7236 3.24511C11.6101 2.78389 10.3848 2.66321 9.20277 2.89834C8.0207 3.13347 6.9349 3.71384 6.08267 4.56607C5.23044 5.41829 4.65007 6.5041 4.41494 7.68617C4.17981 8.86824 4.30049 10.0935 4.76171 11.207C5.22293 12.3205 6.00398 13.2722 7.00609 13.9418C8.00821 14.6114 9.18637 14.9687 10.3916 14.9687C12.0072 14.9668 13.556 14.3242 14.6984 13.1818C15.8408 12.0394 16.4834 10.4906 16.4854 8.875Z" fill="white"/>
</svg>
